<?xml version="1.0" encoding="UTF-8"?>
<svg width="700pt" height="700pt" version="1.1" viewBox="0 0 700 700" xmlns="http://www.w3.org/2000/svg">
 <g>
  <path d="m215.64 135.09c-34.465 0-62.547 28.082-62.547 62.547v164.73c0 34.465 28.082 62.547 62.547 62.547l268.74-0.003906c34.465 0 62.504-28.082 62.504-62.547v-164.73c0-34.465-28.039-62.547-62.504-62.547zm0 21.164 268.74 0.003907c23.105 0 41.34 18.277 41.34 41.379v164.73c0 23.105-18.234 41.379-41.34 41.379h-268.74c-23.105 0-41.379-18.277-41.379-41.379v-164.73c0-23.105 18.277-41.379 41.379-41.379z" fill-rule="evenodd"/>
  <path d="m236.1 448.3c-6.3242 0.019531-12.352 2.668-16.637 7.3164-1.332 1.4492-2.4648 3.0664-3.3789 4.8125h-52.414c-5.8438 0.003907-10.578 4.7422-10.574 10.586 0 5.8398 4.7344 10.574 10.574 10.578h52.391c1.207 2.2969 2.7969 4.375 4.7031 6.1367 4.4336 4.082 10.305 6.2422 16.328 5.9961 6.0195-0.24219 11.699-2.8672 15.785-7.3008 1.3438-1.4531 2.4922-3.0781 3.4141-4.832h280.01c5.8438 0 10.586-4.7344 10.59-10.578 0-2.8086-1.1133-5.5-3.1016-7.4883-1.9844-1.9844-4.6797-3.1016-7.4883-3.0977h-280.02c-1.207-2.293-2.793-4.3594-4.6914-6.1133h-0.011719c-4.2148-3.8867-9.7461-6.0352-15.477-6.0156z"/>
  <path d="m305.12 229.79c-4.4883 18.023-7.2891 34.07-7.0352 50.219 0.25781 16.152 2.0664 34.527 7.0391 50.23 2.4414 7.5977 10.914 10.805 18.027 7.168 9.5391-4.875 23.461-12.359 38.766-21.809 15.43-9.5234 28.195-19.27 36.602-26.148 6.1797-5.0586 6.1758-13.832-0.007813-18.891-8.4062-6.8789-21.172-16.625-36.598-26.145-15.316-9.457-29.25-16.945-38.789-21.82-7.1016-3.6289-15.566-0.41016-18.008 7.1953z" fill-rule="evenodd"/>
 </g>
</svg>
